<?xml version="1.0" encoding="UTF-8" standalone="no"?>
<!DOCTYPE svg PUBLIC "-//W3C//DTD SVG 1.1//EN" "http://www.w3.org/Graphics/SVG/1.1/DTD/svg11.dtd">
<svg width="100%" height="100%" viewBox="0 0 128 128" version="1.1" xmlns="http://www.w3.org/2000/svg" xmlns:xlink="http://www.w3.org/1999/xlink" xml:space="preserve" xmlns:serif="http://www.serif.com/" style="fill-rule:evenodd;clip-rule:evenodd;stroke-linejoin:round;stroke-miterlimit:2;">
    <g transform="matrix(1,0,0,1,-415.272,-473.876)">
        <g transform="matrix(1,0,0,1,-3.06534,3.20844)">
            <circle cx="482.253" cy="534.584" r="63.916" style="fill:rgb(243,92,92);"/>
            <clipPath id="_clip1">
                <circle cx="482.253" cy="534.584" r="63.916"/>
            </clipPath>
            <g clip-path="url(#_clip1)">
                <g transform="matrix(1.3584,0,0,1.31958,-154.731,-174.335)">
                    <path d="M370.379,546.721C370.379,549.86 372.851,552.405 375.9,552.405L467.928,552.405C467.928,552.405 467.928,567.597 467.928,567.597C467.928,569.896 469.273,571.969 471.336,572.848C473.399,573.728 475.774,573.242 477.353,571.616L508.552,539.499C510.708,537.28 510.708,533.681 508.552,531.461L477.353,499.345C475.774,497.719 473.399,497.233 471.336,498.113C469.273,498.992 467.928,501.065 467.928,503.364L467.928,518.556C467.928,518.556 375.9,518.556 375.9,518.556C372.851,518.556 370.379,521.101 370.379,524.24L370.379,546.721ZM375.9,546.721L375.9,524.24L473.449,524.24L473.449,503.364L504.648,535.48L473.449,567.597L473.449,546.721L375.9,546.721Z" style="fill:rgb(181,238,194);"/>
                </g>
            </g>
        </g>
    </g>
</svg>
