<?xml version="1.0" encoding="UTF-8" standalone="no"?>
<!DOCTYPE svg PUBLIC "-//W3C//DTD SVG 1.1//EN" "http://www.w3.org/Graphics/SVG/1.1/DTD/svg11.dtd">
<svg width="100%" height="100%" viewBox="0 0 128 128" version="1.1" xmlns="http://www.w3.org/2000/svg" xmlns:xlink="http://www.w3.org/1999/xlink" xml:space="preserve" xmlns:serif="http://www.serif.com/" style="fill-rule:evenodd;clip-rule:evenodd;stroke-linecap:round;stroke-linejoin:round;stroke-miterlimit:1.5;">
    <g transform="matrix(1,0,0,1,-1173.71,-473.876)">
        <g transform="matrix(1,0,0,1,614.483,0)">
            <g transform="matrix(1,0,0,1,140.89,3.20844)">
                <circle cx="482.253" cy="534.584" r="63.916" style="fill:rgb(243,92,92);"/>
            </g>
            <g transform="matrix(1.05532,-0.474129,0.474129,1.05532,-296.889,269.621)">
                <g transform="matrix(0.801109,0,0,0.801109,123.521,106.586)">
                    <path d="M593.275,548.778L572.453,541.908C569.958,541.085 568.273,538.752 568.275,536.125L568.275,535.676C568.273,533.048 569.958,530.716 572.453,529.893C600.763,520.552 653.361,503.197 653.361,503.197L655.976,502.477C656.917,502.052 657.891,501.829 658.888,501.829C667.132,501.829 673.826,517.096 673.826,535.9C673.826,554.705 667.132,569.972 658.888,569.972C657.891,569.972 656.917,569.749 655.976,569.323L653.361,568.603L620.279,557.688L619.733,559.298C618.652,562.479 615.193,564.185 612.012,563.105C612.012,563.105 596.614,557.876 596.614,557.876C593.433,556.796 591.727,553.336 592.808,550.155L593.275,548.778ZM597.549,550.188L597.069,551.602C596.787,552.431 597.232,553.333 598.061,553.615C598.061,553.615 613.459,558.844 613.459,558.844C614.288,559.125 615.19,558.681 615.472,557.851L616.006,556.278L597.549,550.188Z" style="fill:rgb(180,238,195);"/>
                    <g transform="matrix(1.57087,0,0,1.08203,-382.907,-43.1483)">
                        <ellipse cx="663.198" cy="535.153" rx="8.899" ry="29.469" style="fill:rgb(47,166,217);"/>
                        <path d="M663.198,498.205C660.36,498.205 657.535,500.096 655.176,504.147C651.779,509.982 649.148,521.615 649.148,535.153C649.148,548.69 651.779,560.323 655.176,566.158C657.535,570.209 660.36,572.1 663.198,572.1C666.037,572.1 668.862,570.209 671.221,566.158C674.618,560.323 677.249,548.69 677.249,535.153C677.249,521.615 674.618,509.982 671.221,504.147C668.862,500.096 666.037,498.205 663.198,498.205ZM663.198,505.684C668.11,505.684 672.098,518.888 672.098,535.153C672.098,551.417 668.11,564.621 663.198,564.621C658.287,564.621 654.299,551.417 654.299,535.153C654.299,518.888 658.287,505.684 663.198,505.684Z" style="fill:rgb(181,238,194);"/>
                    </g>
                </g>
                <g transform="matrix(0.928892,0,0,0.928892,41.3954,38.1065)">
                    <path d="M652.189,535.9L686.849,535.9" style="fill:none;stroke:rgb(158,212,188);stroke-width:7.44px;"/>
                </g>
                <g transform="matrix(0.90475,0.210399,-0.210399,0.90475,168.217,-71.5619)">
                    <path d="M656.739,535.9L683.736,535.9" style="fill:none;stroke:rgb(158,212,188);stroke-width:7.44px;"/>
                </g>
                <g transform="matrix(0.907015,-0.200413,0.200413,0.907015,-53.2573,166.618)">
                    <path d="M657.016,535.9L683.736,535.9" style="fill:none;stroke:rgb(158,212,188);stroke-width:7.44px;"/>
                </g>
            </g>
        </g>
    </g>
</svg>
