<?xml version="1.0" encoding="UTF-8" standalone="no"?>
<!DOCTYPE svg PUBLIC "-//W3C//DTD SVG 1.1//EN" "http://www.w3.org/Graphics/SVG/1.1/DTD/svg11.dtd">
<svg width="100%" height="100%" viewBox="0 0 128 128" version="1.1" xmlns="http://www.w3.org/2000/svg" xmlns:xlink="http://www.w3.org/1999/xlink" xml:space="preserve" xmlns:serif="http://www.serif.com/" style="fill-rule:evenodd;clip-rule:evenodd;stroke-linejoin:round;stroke-miterlimit:2;">
    <g transform="matrix(1,0,0,1,-885.054,-473.876)">
        <g transform="matrix(1,0,0,1,466.717,3.20844)">
            <circle cx="482.253" cy="534.584" r="63.916" style="fill:rgb(243,92,92);"/>
            <clipPath id="_clip1">
                <circle cx="482.253" cy="534.584" r="63.916"/>
            </clipPath>
            <g clip-path="url(#_clip1)">
                <g transform="matrix(0.664993,0,0,0.664993,-136.101,186.934)">
                    <path d="M897.502,401.41C894.971,401.269 892.433,401.269 889.901,401.41L884.928,412.209C880.72,412.852 876.596,413.957 872.631,415.503L862.924,408.639C860.661,409.782 858.463,411.051 856.342,412.439L857.433,424.278C854.111,426.939 851.093,429.958 848.431,433.28L836.593,432.188C835.205,434.31 833.936,436.508 832.792,438.771L839.657,448.477C838.111,452.443 837.006,456.567 836.362,460.774L825.564,465.748C825.423,468.28 825.423,470.817 825.564,473.349L836.362,478.323C837.006,482.53 838.111,486.654 839.657,490.62L832.792,500.326C833.936,502.589 835.205,504.787 836.593,506.909L848.431,505.817C851.093,509.139 854.111,512.158 857.433,514.819L856.342,526.657C858.463,528.046 860.661,529.314 862.924,530.458L872.631,523.593C876.596,525.14 880.72,526.245 884.928,526.888L889.901,537.687C892.433,537.828 894.971,537.828 897.502,537.687L902.476,526.888C906.684,526.245 910.808,525.14 914.773,523.593L924.48,530.458C926.743,529.314 928.94,528.046 931.062,526.657L929.971,514.819C933.292,512.158 936.311,509.139 938.973,505.817L950.811,506.909C952.199,504.787 953.468,502.589 954.612,500.326L947.747,490.62C949.293,486.654 950.398,482.53 951.042,478.323L961.84,473.349C961.981,470.817 961.981,468.28 961.84,465.748L951.042,460.774C950.398,456.567 949.293,452.443 947.747,448.477L954.612,438.771C953.468,436.508 952.199,434.31 950.811,432.188L938.973,433.28C936.311,429.958 933.292,426.939 929.971,424.278L931.062,412.439C928.94,411.051 926.743,409.782 924.48,408.639L914.773,415.503C910.808,413.957 906.684,412.852 902.476,412.209L897.502,401.41ZM893.702,455.9C901.235,455.9 907.351,462.015 907.351,469.548C907.351,477.081 901.235,483.197 893.702,483.197C886.169,483.197 880.053,477.081 880.053,469.548C880.053,462.015 886.169,455.9 893.702,455.9Z" style="fill:rgb(181,238,194);"/>
                    <path d="M900.234,400.152C899.768,399.141 898.782,398.47 897.67,398.408C895.027,398.26 892.377,398.26 889.734,398.408C888.622,398.47 887.636,399.141 887.17,400.152L882.862,409.504C879.53,410.106 876.254,410.984 873.067,412.129C873.067,412.129 864.661,406.183 864.661,406.183C863.752,405.54 862.562,405.452 861.568,405.955C859.205,407.149 856.911,408.473 854.695,409.923C853.763,410.532 853.244,411.607 853.347,412.716L854.292,422.969C851.707,425.155 849.309,427.554 847.122,430.139C847.122,430.139 836.869,429.193 836.869,429.193C835.76,429.091 834.686,429.61 834.076,430.542C832.627,432.757 831.302,435.052 830.108,437.414C829.606,438.408 829.694,439.598 830.337,440.507L836.282,448.914C835.137,452.1 834.259,455.377 833.658,458.709C833.658,458.709 824.306,463.016 824.306,463.016C823.294,463.482 822.623,464.469 822.561,465.58C822.414,468.224 822.414,470.873 822.561,473.516C822.623,474.628 823.294,475.615 824.306,476.081L833.658,480.388C834.259,483.72 835.137,486.997 836.282,490.183C836.282,490.183 830.337,498.59 830.337,498.59C829.694,499.499 829.606,500.689 830.108,501.683C831.302,504.045 832.627,506.34 834.076,508.555C834.686,509.487 835.76,510.006 836.869,509.904L847.122,508.958C849.309,511.543 851.707,513.942 854.293,516.129C854.292,516.128 853.347,526.381 853.347,526.381C853.244,527.49 853.763,528.565 854.695,529.174C856.911,530.624 859.205,531.948 861.568,533.142C862.562,533.645 863.752,533.556 864.661,532.914L873.067,526.968C876.254,528.113 879.53,528.991 882.863,529.593C882.862,529.593 887.17,538.945 887.17,538.945C887.636,539.956 888.622,540.627 889.734,540.689C892.377,540.837 895.027,540.837 897.67,540.689C898.782,540.627 899.768,539.956 900.234,538.945L904.542,529.593C907.874,528.991 911.15,528.113 914.337,526.968C914.337,526.968 922.743,532.914 922.743,532.914C923.652,533.556 924.842,533.645 925.836,533.142C928.199,531.948 930.493,530.624 932.709,529.174C933.641,528.565 934.159,527.49 934.057,526.381L933.112,516.128C935.697,513.942 938.095,511.543 940.282,508.958C940.282,508.958 950.535,509.904 950.535,509.904C951.644,510.006 952.718,509.487 953.328,508.555C954.777,506.34 956.102,504.045 957.296,501.683C957.798,500.689 957.71,499.499 957.067,498.59L951.122,490.183C952.267,486.997 953.145,483.72 953.746,480.388C953.746,480.388 963.098,476.081 963.098,476.081C964.11,475.615 964.781,474.628 964.843,473.516C964.99,470.873 964.99,468.224 964.843,465.58C964.781,464.469 964.11,463.482 963.098,463.016L953.746,458.709C953.145,455.377 952.267,452.1 951.122,448.913C951.122,448.914 957.067,440.507 957.067,440.507C957.71,439.598 957.798,438.408 957.296,437.414C956.102,435.052 954.777,432.757 953.328,430.542C952.718,429.61 951.644,429.091 950.535,429.193L940.282,430.139C938.095,427.554 935.696,425.155 933.111,422.968C933.112,422.968 934.057,412.716 934.057,412.716C934.159,411.607 933.641,410.532 932.709,409.923C930.493,408.473 928.199,407.149 925.836,405.955C924.842,405.452 923.652,405.54 922.743,406.183L914.336,412.129C911.15,410.984 907.874,410.106 904.541,409.504C904.542,409.504 900.234,400.152 900.234,400.152ZM897.502,401.41C894.971,401.269 892.433,401.269 889.901,401.41L884.928,412.209C880.72,412.852 876.596,413.957 872.631,415.503L862.924,408.639C860.661,409.782 858.463,411.051 856.342,412.439L857.433,424.278C854.111,426.939 851.093,429.958 848.431,433.28L836.593,432.188C835.205,434.31 833.936,436.508 832.792,438.771L839.657,448.477C838.111,452.443 837.006,456.567 836.362,460.774L825.564,465.748C825.423,468.28 825.423,470.817 825.564,473.349L836.362,478.323C837.006,482.53 838.111,486.654 839.657,490.62L832.792,500.326C833.936,502.589 835.205,504.787 836.593,506.909L848.431,505.817C851.093,509.139 854.111,512.158 857.433,514.819L856.342,526.657C858.463,528.046 860.661,529.314 862.924,530.458L872.631,523.593C876.596,525.14 880.72,526.245 884.928,526.888L889.901,537.687C892.433,537.828 894.971,537.828 897.502,537.687L902.476,526.888C906.684,526.245 910.808,525.14 914.773,523.593L924.48,530.458C926.743,529.314 928.94,528.046 931.062,526.657L929.971,514.819C933.292,512.158 936.311,509.139 938.973,505.817L950.811,506.909C952.199,504.787 953.468,502.589 954.612,500.326L947.747,490.62C949.293,486.654 950.398,482.53 951.042,478.323L961.84,473.349C961.981,470.817 961.981,468.28 961.84,465.748L951.042,460.774C950.398,456.567 949.293,452.443 947.747,448.477L954.612,438.771C953.468,436.508 952.199,434.31 950.811,432.188L938.973,433.28C936.311,429.958 933.292,426.939 929.971,424.278L931.062,412.439C928.94,411.051 926.743,409.782 924.48,408.639L914.773,415.503C910.808,413.957 906.684,412.852 902.476,412.209L897.502,401.41ZM893.702,455.9C901.235,455.9 907.351,462.015 907.351,469.548C907.351,477.081 901.235,483.197 893.702,483.197C886.169,483.197 880.053,477.081 880.053,469.548C880.053,462.015 886.169,455.9 893.702,455.9ZM893.702,458.907C899.575,458.907 904.343,463.675 904.343,469.548C904.343,475.422 899.575,480.19 893.702,480.19C887.829,480.19 883.061,475.422 883.061,469.548C883.061,463.675 887.829,458.907 893.702,458.907Z" style="fill:rgb(181,238,194);"/>
                </g>
                <g transform="matrix(0.368803,0,0,0.368803,179.29,377.36)">
                    <path d="M913.994,398.983C912.805,394.911 909.351,391.906 905.153,391.292C897.559,390.181 889.844,390.181 882.251,391.292C878.053,391.906 874.599,394.911 873.41,398.983L871.873,404.247C868.821,405.267 865.843,406.501 862.962,407.938C862.963,407.938 858.153,405.303 858.153,405.303C854.433,403.264 849.866,403.582 846.464,406.116C840.308,410.699 834.853,416.155 830.269,422.31C827.735,425.712 827.418,430.279 829.456,434L832.091,438.809C830.655,441.688 829.421,444.667 828.4,447.72C828.401,447.719 823.136,449.257 823.136,449.257C819.065,450.446 816.06,453.9 815.445,458.097C814.334,465.691 814.334,473.406 815.445,481C816.06,485.197 819.065,488.651 823.136,489.84L828.401,491.378C829.421,494.43 830.654,497.408 832.092,500.289C832.091,500.288 829.456,505.097 829.456,505.097C827.418,508.817 827.735,513.385 830.269,516.787C834.853,522.942 840.308,528.398 846.464,532.981C849.866,535.515 854.433,535.833 858.153,533.794L862.963,531.159C865.842,532.596 868.82,533.829 871.873,534.85C871.873,534.85 873.41,540.114 873.41,540.114C874.599,544.186 878.053,547.191 882.251,547.805C889.844,548.916 897.559,548.916 905.153,547.805C909.351,547.191 912.805,544.186 913.994,540.114L915.531,534.85C918.583,533.83 921.561,532.596 924.442,531.159C924.441,531.159 929.251,533.794 929.251,533.794C932.971,535.833 937.538,535.515 940.94,532.981C947.096,528.398 952.551,522.942 957.135,516.787C959.669,513.385 959.986,508.817 957.948,505.097L955.313,500.288C956.749,497.408 957.983,494.43 959.003,491.377C959.003,491.378 964.267,489.84 964.267,489.84C968.339,488.651 971.344,485.197 971.958,481C973.07,473.406 973.07,465.691 971.958,458.097C971.344,453.9 968.339,450.446 964.267,449.257L959.003,447.719C957.983,444.667 956.75,441.689 955.312,438.808C955.313,438.809 957.948,434 957.948,434C959.986,430.279 959.669,425.712 957.135,422.31C952.551,416.155 947.096,410.699 940.94,406.116C937.538,403.582 932.971,403.264 929.251,405.303L924.441,407.938C921.562,406.501 918.584,405.268 915.53,404.247C915.531,404.247 913.994,398.983 913.994,398.983ZM903.583,402.024C897.03,401.065 890.373,401.065 883.821,402.024L880.604,413.039C874.376,414.483 868.43,416.946 863.006,420.329L852.942,414.814C847.63,418.77 842.923,423.477 838.968,428.788L844.482,438.852C841.099,444.276 838.636,450.223 837.193,456.45L826.177,459.668C825.218,466.22 825.218,472.877 826.177,479.429L837.193,482.647C838.636,488.874 841.099,494.82 844.482,500.245L838.968,510.309C842.923,515.62 847.63,520.327 852.942,524.283L863.006,518.768C868.43,522.151 874.376,524.614 880.604,526.058L883.821,537.073C890.373,538.032 897.03,538.032 903.583,537.073L906.8,526.058C913.028,524.614 918.974,522.151 924.398,518.768L934.462,524.283C939.774,520.327 944.481,515.62 948.436,510.309L942.922,500.245C946.305,494.82 948.768,488.874 950.211,482.647L961.227,479.429C962.186,472.877 962.186,466.22 961.227,459.668L950.211,456.45C948.768,450.223 946.305,444.276 942.922,438.852L948.436,428.788C944.481,423.477 939.774,418.77 934.462,414.814L924.398,420.329C918.974,416.946 913.028,414.483 906.8,413.039L903.583,402.024ZM893.702,455.9C901.235,455.9 907.351,462.015 907.351,469.548C907.351,477.081 901.235,483.197 893.702,483.197C886.169,483.197 880.053,477.081 880.053,469.548C880.053,462.015 886.169,455.9 893.702,455.9ZM893.702,466.746C895.249,466.746 896.505,468.001 896.505,469.548C896.505,471.095 895.249,472.351 893.702,472.351C892.155,472.351 890.899,471.095 890.899,469.548C890.899,468.001 892.155,466.746 893.702,466.746Z" style="fill:rgb(181,238,194);"/>
                </g>
            </g>
        </g>
    </g>
</svg>
