<?xml version="1.0" encoding="UTF-8" standalone="no"?>
<!DOCTYPE svg PUBLIC "-//W3C//DTD SVG 1.1//EN" "http://www.w3.org/Graphics/SVG/1.1/DTD/svg11.dtd">
<svg width="100%" height="100%" viewBox="0 0 1284 388" version="1.1" xmlns="http://www.w3.org/2000/svg" xmlns:xlink="http://www.w3.org/1999/xlink" xml:space="preserve" xmlns:serif="http://www.serif.com/" style="fill-rule:evenodd;clip-rule:evenodd;stroke-linejoin:round;stroke-miterlimit:2;">
    <g transform="matrix(1,0,0,1,0,-479.501)">
        <g id="outlines" transform="matrix(0.564101,0,0,0.397922,0,241.607)">
            <rect x="0" y="597.843" width="2275.82" height="974.003" style="fill:none;"/>
            <g transform="matrix(1.66278,-1.36092,1.85312,1.51671,-1279.5,-1821.93)">
                <rect x="-631.971" y="1287.78" width="120.719" height="107.699" style="fill:rgb(243,92,92);"/>
            </g>
            <g transform="matrix(1.66278,-1.36092,1.85312,1.51671,408.682,-1695.81)">
                <rect x="-631.971" y="1287.78" width="120.719" height="107.699" style="fill:rgb(243,92,92);"/>
            </g>
            <g id="reference-box" serif:id="reference box" transform="matrix(1.77273,0,0,2.51306,-36.0256,-913.186)">
                <g transform="matrix(0.866025,-0.5,1,0.57735,-86.6025,180.843)">
                    <rect x="-97" y="1114.58" width="100" height="86.603" style="fill:rgb(47,166,217);"/>
                </g>
                <g transform="matrix(0.866025,0.5,-5.92119e-17,1.00074,-3.50819e-13,-3.55681)">
                    <rect x="1190" y="101.325" width="100" height="129.904" style="fill:rgb(180,238,195);"/>
                    <clipPath id="_clip1">
                        <rect x="1190" y="101.325" width="100" height="129.904"/>
                    </clipPath>
                    <g clip-path="url(#_clip1)">
                        <g transform="matrix(73.3333,-7.32747e-15,1.08475e-15,84.6154,1174.59,198.008)">
                            <path d="M0.045,-0.75C0.03,-0.75 0.02,-0.746 0.02,-0.741L0.02,-0.57C0.02,-0.558 0.026,-0.56 0.034,-0.56L0.262,-0.56L0.262,-0.186L0.035,-0.186C0.026,-0.186 0.02,-0.178 0.02,-0.169L0.02,-0.011C0.02,0.001 0.032,-0 0.045,-0L1.741,-0C1.76,-0 1.764,-0.007 1.764,-0.014L1.764,-0.309C1.764,-0.323 1.76,-0.328 1.753,-0.328L1.387,-0.328C1.371,-0.328 1.368,-0.317 1.368,-0.308L1.368,-0.186L0.782,-0.186L0.782,-0.287L1.094,-0.287C1.106,-0.287 1.118,-0.289 1.118,-0.297L1.118,-0.454C1.118,-0.462 1.114,-0.464 1.104,-0.464L0.782,-0.464L0.782,-0.559L1.36,-0.559L1.36,-0.433C1.36,-0.426 1.366,-0.426 1.373,-0.426L1.717,-0.426C1.727,-0.426 1.73,-0.433 1.73,-0.443L1.73,-0.728C1.73,-0.743 1.725,-0.75 1.707,-0.75L0.045,-0.75Z" style="fill:rgb(219,16,16);fill-rule:nonzero;"/>
                        </g>
                    </g>
                </g>
            </g>
            <g id="reference-box1" serif:id="reference box" transform="matrix(1.77273,0,0,2.51306,-343.072,-913.186)">
                <g transform="matrix(0.866025,-0.5,1,0.57735,0,0.84319)">
                    <rect x="-97" y="1114.58" width="100" height="86.603" style="fill:rgb(47,166,217);"/>
                </g>
                <g transform="matrix(0.866025,-0.5,1,0.57735,-86.6025,180.843)">
                    <rect x="-97" y="1114.58" width="100" height="86.603" style="fill:rgb(47,166,217);"/>
                </g>
                <g transform="matrix(0.866025,0.5,-5.92119e-17,1.00074,-3.50819e-13,-3.55681)">
                    <rect x="1190" y="101.325" width="100" height="129.904" style="fill:rgb(180,238,195);"/>
                    <clipPath id="_clip2">
                        <rect x="1190" y="101.325" width="100" height="129.904"/>
                    </clipPath>
                    <g clip-path="url(#_clip2)">
                        <g transform="matrix(73.3333,-7.32747e-15,1.08475e-15,84.6154,1166.48,198.008)">
                            <path d="M0.046,-0.75C0.031,-0.75 0.021,-0.745 0.021,-0.735L0.021,-0.579C0.021,-0.564 0.031,-0.561 0.038,-0.561L0.262,-0.561L0.262,-0.189L0.045,-0.189C0.025,-0.189 0.02,-0.179 0.02,-0.171L0.02,-0.02C0.02,-0.007 0.025,-0 0.035,-0L0.764,-0C0.776,-0 0.784,-0.007 0.784,-0.022L0.784,-0.174C0.784,-0.184 0.771,-0.189 0.759,-0.189L0.528,-0.189L0.528,-0.484L1.091,-0.007C1.098,-0.001 1.109,-0 1.116,-0L1.732,-0C1.745,-0 1.75,-0.01 1.75,-0.027L1.75,-0.561L1.963,-0.561C1.976,-0.561 1.986,-0.566 1.986,-0.579L1.986,-0.725C1.986,-0.735 1.982,-0.75 1.964,-0.75L1.25,-0.75C1.243,-0.75 1.236,-0.74 1.236,-0.728L1.236,-0.574C1.236,-0.566 1.244,-0.561 1.259,-0.561L1.479,-0.561L1.479,-0.303L0.965,-0.738C0.955,-0.745 0.944,-0.75 0.934,-0.75L0.046,-0.75Z" style="fill:rgb(219,16,16);fill-rule:nonzero;"/>
                        </g>
                    </g>
                </g>
                <g transform="matrix(0.96225,-0.555556,6.4763e-17,0.938194,-124.13,324.447)">
                    <rect x="1290" y="1209.84" width="90" height="138.564" style="fill:rgb(158,212,188);"/>
                    <clipPath id="_clip3">
                        <rect x="1290" y="1209.84" width="90" height="138.564"/>
                    </clipPath>
                    <g clip-path="url(#_clip3)">
                        <g transform="matrix(66,0,-1.84407e-15,90.2564,1282.86,1312.97)">
                            <path d="M1.288,-0.33C1.279,-0.33 1.273,-0.329 1.269,-0.323C1.243,-0.283 1.146,-0.186 0.929,-0.186C0.659,-0.186 0.635,-0.335 0.635,-0.379C0.635,-0.435 0.68,-0.561 0.898,-0.561C1.115,-0.561 1.185,-0.436 1.192,-0.427C1.2,-0.418 1.202,-0.418 1.211,-0.418L1.526,-0.418C1.538,-0.42 1.541,-0.426 1.541,-0.436L1.541,-0.721C1.541,-0.739 1.534,-0.743 1.522,-0.743L1.195,-0.743C1.19,-0.743 1.183,-0.736 1.182,-0.725L1.175,-0.659C1.072,-0.715 0.951,-0.75 0.754,-0.75C0.21,-0.75 0.045,-0.529 0.045,-0.361C0.045,-0.192 0.204,-0 0.842,-0C1.462,-0 1.52,-0.283 1.536,-0.314C1.541,-0.324 1.531,-0.33 1.522,-0.33L1.288,-0.33Z" style="fill:rgb(219,16,16);fill-rule:nonzero;"/>
                        </g>
                    </g>
                </g>
            </g>
            <g id="reference-box2" serif:id="reference box" transform="matrix(1.77273,0,0,2.51306,-650.119,-913.186)">
                <g transform="matrix(0.866025,-0.5,1,0.57735,0,0.84319)">
                    <rect x="-97" y="1114.58" width="100" height="86.603" style="fill:rgb(47,166,217);"/>
                </g>
                <g transform="matrix(0.866025,-0.5,1,0.57735,-86.6025,180.843)">
                    <rect x="-97" y="1114.58" width="100" height="86.603" style="fill:rgb(47,166,217);"/>
                </g>
                <g transform="matrix(0.866025,0.5,-5.92119e-17,1.00074,-3.50819e-13,-3.55681)">
                    <rect x="1190" y="101.325" width="100" height="129.904" style="fill:rgb(180,238,195);"/>
                    <clipPath id="_clip4">
                        <rect x="1190" y="101.325" width="100" height="129.904"/>
                    </clipPath>
                    <g clip-path="url(#_clip4)">
                        <g transform="matrix(73.3333,-7.32747e-15,1.08475e-15,84.6154,1181.59,198.008)">
                            <path d="M1.146,-0.693C1.095,-0.716 0.998,-0.75 0.859,-0.75L0.584,-0.75C0.422,-0.75 0.288,-0.724 0.219,-0.685C0.164,-0.656 0.055,-0.597 0.055,-0.497C0.055,-0.426 0.134,-0.334 0.298,-0.287C0.39,-0.261 0.621,-0.237 0.698,-0.237L0.988,-0.235C1.002,-0.235 1.058,-0.224 1.058,-0.186C1.058,-0.153 0.998,-0.147 0.987,-0.147L0.626,-0.147C0.615,-0.147 0.453,-0.151 0.433,-0.217C0.431,-0.224 0.426,-0.228 0.418,-0.228L0.061,-0.228C0.053,-0.228 0.05,-0.221 0.05,-0.216L0.05,-0.012C0.05,-0.004 0.053,-0 0.06,-0L0.4,-0C0.407,-0 0.413,-0.002 0.415,-0.01L0.421,-0.068C0.492,-0.035 0.612,-0 0.725,-0L0.996,-0C1.139,-0 1.551,-0.032 1.551,-0.261C1.551,-0.421 1.341,-0.462 1.283,-0.476C1.223,-0.489 0.993,-0.508 0.894,-0.508L0.703,-0.51C0.663,-0.51 0.543,-0.508 0.543,-0.558C0.543,-0.605 0.617,-0.608 0.642,-0.608L0.949,-0.608C0.981,-0.608 1.09,-0.595 1.123,-0.538C1.125,-0.533 1.13,-0.533 1.134,-0.533L1.465,-0.533C1.473,-0.533 1.478,-0.538 1.478,-0.545L1.478,-0.728C1.478,-0.735 1.471,-0.749 1.452,-0.749L1.178,-0.749C1.17,-0.749 1.161,-0.746 1.159,-0.738L1.146,-0.693Z" style="fill:rgb(219,16,16);fill-rule:nonzero;"/>
                        </g>
                    </g>
                </g>
                <g transform="matrix(0.96225,-0.555556,6.4763e-17,0.938194,-124.13,324.447)">
                    <rect x="1290" y="1209.84" width="90" height="138.564" style="fill:rgb(158,212,188);"/>
                    <clipPath id="_clip5">
                        <rect x="1290" y="1209.84" width="90" height="138.564"/>
                    </clipPath>
                    <g clip-path="url(#_clip5)">
                        <g transform="matrix(66,0,-1.84407e-15,90.2564,1276.13,1312.97)">
                            <path d="M0.045,-0.75C0.03,-0.75 0.02,-0.746 0.02,-0.741L0.02,-0.57C0.02,-0.558 0.026,-0.56 0.034,-0.56L0.262,-0.56L0.262,-0.186L0.035,-0.186C0.026,-0.186 0.02,-0.178 0.02,-0.169L0.02,-0.011C0.02,0.001 0.032,-0 0.045,-0L1.741,-0C1.76,-0 1.764,-0.007 1.764,-0.014L1.764,-0.309C1.764,-0.323 1.76,-0.328 1.753,-0.328L1.387,-0.328C1.371,-0.328 1.368,-0.317 1.368,-0.308L1.368,-0.186L0.782,-0.186L0.782,-0.287L1.094,-0.287C1.106,-0.287 1.118,-0.289 1.118,-0.297L1.118,-0.454C1.118,-0.462 1.114,-0.464 1.104,-0.464L0.782,-0.464L0.782,-0.559L1.36,-0.559L1.36,-0.433C1.36,-0.426 1.366,-0.426 1.373,-0.426L1.717,-0.426C1.727,-0.426 1.73,-0.433 1.73,-0.443L1.73,-0.728C1.73,-0.743 1.725,-0.75 1.707,-0.75L0.045,-0.75Z" style="fill:rgb(219,16,16);fill-rule:nonzero;"/>
                        </g>
                    </g>
                </g>
            </g>
            <g id="reference-box3" serif:id="reference box" transform="matrix(1.77273,0,0,2.51306,-957.165,-913.186)">
                <g transform="matrix(0.866025,-0.5,1,0.57735,0,0.84319)">
                    <rect x="-97" y="1114.58" width="100" height="86.603" style="fill:rgb(47,166,217);"/>
                </g>
                <g transform="matrix(0.866025,-0.5,1,0.57735,-86.6025,180.843)">
                    <rect x="-97" y="1114.58" width="100" height="86.603" style="fill:rgb(47,166,217);"/>
                </g>
                <g transform="matrix(0.866025,0.5,-5.92119e-17,1.00074,-3.50819e-13,-3.55681)">
                    <rect x="1190" y="101.325" width="100" height="129.904" style="fill:rgb(180,238,195);"/>
                    <clipPath id="_clip6">
                        <rect x="1190" y="101.325" width="100" height="129.904"/>
                    </clipPath>
                    <g clip-path="url(#_clip6)">
                        <g transform="matrix(73.3333,-7.32747e-15,1.08475e-15,84.6154,1174.59,198.008)">
                            <path d="M0.045,-0.75C0.03,-0.75 0.02,-0.746 0.02,-0.741L0.02,-0.57C0.02,-0.558 0.026,-0.56 0.034,-0.56L0.262,-0.56L0.262,-0.186L0.035,-0.186C0.026,-0.186 0.02,-0.178 0.02,-0.169L0.02,-0.011C0.02,0.001 0.032,-0 0.045,-0L1.741,-0C1.76,-0 1.764,-0.007 1.764,-0.014L1.764,-0.309C1.764,-0.323 1.76,-0.328 1.753,-0.328L1.387,-0.328C1.371,-0.328 1.368,-0.317 1.368,-0.308L1.368,-0.186L0.782,-0.186L0.782,-0.287L1.094,-0.287C1.106,-0.287 1.118,-0.289 1.118,-0.297L1.118,-0.454C1.118,-0.462 1.114,-0.464 1.104,-0.464L0.782,-0.464L0.782,-0.559L1.36,-0.559L1.36,-0.433C1.36,-0.426 1.366,-0.426 1.373,-0.426L1.717,-0.426C1.727,-0.426 1.73,-0.433 1.73,-0.443L1.73,-0.728C1.73,-0.743 1.725,-0.75 1.707,-0.75L0.045,-0.75Z" style="fill:rgb(219,16,16);fill-rule:nonzero;"/>
                        </g>
                    </g>
                </g>
                <g transform="matrix(0.96225,-0.555556,6.4763e-17,0.938194,-124.13,324.447)">
                    <rect x="1290" y="1209.84" width="90" height="138.564" style="fill:rgb(158,212,188);"/>
                    <clipPath id="_clip7">
                        <rect x="1290" y="1209.84" width="90" height="138.564"/>
                    </clipPath>
                    <g clip-path="url(#_clip7)">
                        <g transform="matrix(66,0,-1.84407e-15,90.2564,1282.43,1312.97)">
                            <path d="M1.146,-0.693C1.095,-0.716 0.998,-0.75 0.859,-0.75L0.584,-0.75C0.422,-0.75 0.288,-0.724 0.219,-0.685C0.164,-0.656 0.055,-0.597 0.055,-0.497C0.055,-0.426 0.134,-0.334 0.298,-0.287C0.39,-0.261 0.621,-0.237 0.698,-0.237L0.988,-0.235C1.002,-0.235 1.058,-0.224 1.058,-0.186C1.058,-0.153 0.998,-0.147 0.987,-0.147L0.626,-0.147C0.615,-0.147 0.453,-0.151 0.433,-0.217C0.431,-0.224 0.426,-0.228 0.418,-0.228L0.061,-0.228C0.053,-0.228 0.05,-0.221 0.05,-0.216L0.05,-0.012C0.05,-0.004 0.053,-0 0.06,-0L0.4,-0C0.407,-0 0.413,-0.002 0.415,-0.01L0.421,-0.068C0.492,-0.035 0.612,-0 0.725,-0L0.996,-0C1.139,-0 1.551,-0.032 1.551,-0.261C1.551,-0.421 1.341,-0.462 1.283,-0.476C1.223,-0.489 0.993,-0.508 0.894,-0.508L0.703,-0.51C0.663,-0.51 0.543,-0.508 0.543,-0.558C0.543,-0.605 0.617,-0.608 0.642,-0.608L0.949,-0.608C0.981,-0.608 1.09,-0.595 1.123,-0.538C1.125,-0.533 1.13,-0.533 1.134,-0.533L1.465,-0.533C1.473,-0.533 1.478,-0.538 1.478,-0.545L1.478,-0.728C1.478,-0.735 1.471,-0.749 1.452,-0.749L1.178,-0.749C1.17,-0.749 1.161,-0.746 1.159,-0.738L1.146,-0.693Z" style="fill:rgb(219,16,16);fill-rule:nonzero;"/>
                        </g>
                    </g>
                </g>
            </g>
            <g id="reference-box4" serif:id="reference box" transform="matrix(1.77273,0,0,2.51306,-1264.21,-913.186)">
                <g transform="matrix(0.866025,-0.5,1,0.57735,0,0.84319)">
                    <rect x="-97" y="1114.58" width="100" height="86.603" style="fill:rgb(47,166,217);"/>
                </g>
                <g transform="matrix(0.866025,-0.5,1,0.57735,-86.6025,180.843)">
                    <rect x="-97" y="1114.58" width="100" height="86.603" style="fill:rgb(47,166,217);"/>
                </g>
                <g transform="matrix(0.866025,0.5,-5.92119e-17,1.00074,-3.50819e-13,-3.55681)">
                    <rect x="1190" y="101.325" width="100" height="129.904" style="fill:rgb(180,238,195);"/>
                    <clipPath id="_clip8">
                        <rect x="1190" y="101.325" width="100" height="129.904"/>
                    </clipPath>
                    <g clip-path="url(#_clip8)">
                        <g transform="matrix(73.3333,-7.32747e-15,1.08475e-15,84.6154,1173.05,198.008)">
                            <path d="M1.005,-0C1.022,-0 1.027,-0.006 1.027,-0.019L1.027,-0.171C1.027,-0.179 1.023,-0.189 1.005,-0.189L0.774,-0.189L0.774,-0.288L1.346,-0.288C1.409,-0.288 1.787,-0.32 1.787,-0.517C1.787,-0.636 1.588,-0.75 1.309,-0.75L0.037,-0.75C0.03,-0.75 0.02,-0.749 0.02,-0.741L0.02,-0.571C0.02,-0.566 0.024,-0.561 0.034,-0.561L0.262,-0.561L0.262,-0.189L0.045,-0.189C0.036,-0.189 0.024,-0.178 0.024,-0.17L0.024,-0.014C0.024,-0.006 0.029,-0 0.036,-0L1.005,-0ZM0.774,-0.463L0.774,-0.561L1.139,-0.561C1.162,-0.561 1.218,-0.546 1.218,-0.51C1.218,-0.471 1.151,-0.463 1.134,-0.463L0.774,-0.463Z" style="fill:rgb(219,16,16);fill-rule:nonzero;"/>
                        </g>
                    </g>
                </g>
                <g transform="matrix(0.96225,-0.555556,6.4763e-17,0.938194,-124.13,324.447)">
                    <rect x="1290" y="1209.84" width="90" height="138.564" style="fill:rgb(158,212,188);"/>
                    <clipPath id="_clip9">
                        <rect x="1290" y="1209.84" width="90" height="138.564"/>
                    </clipPath>
                    <g clip-path="url(#_clip9)">
                        <g transform="matrix(66,0,-1.84407e-15,90.2564,1274.97,1312.97)">
                            <path d="M1.167,-0.184L1.167,-0.569L1.454,-0.569L1.454,-0.438C1.454,-0.426 1.459,-0.426 1.465,-0.426L1.787,-0.426C1.796,-0.426 1.799,-0.435 1.799,-0.442L1.799,-0.726C1.799,-0.748 1.792,-0.75 1.781,-0.75L0.032,-0.75C0.025,-0.75 0.02,-0.743 0.02,-0.736L0.02,-0.441C0.02,-0.433 0.027,-0.428 0.036,-0.428L0.37,-0.428C0.376,-0.428 0.384,-0.428 0.384,-0.435L0.384,-0.569L0.652,-0.569L0.652,-0.184L0.413,-0.184C0.407,-0.184 0.402,-0.176 0.402,-0.171L0.402,-0.014C0.402,-0.004 0.409,-0 0.413,-0L1.414,-0C1.423,-0 1.429,-0.001 1.429,-0.006L1.429,-0.178C1.429,-0.183 1.423,-0.184 1.414,-0.184L1.167,-0.184Z" style="fill:rgb(219,16,16);fill-rule:nonzero;"/>
                        </g>
                    </g>
                </g>
            </g>
            <g id="reference-box5" serif:id="reference box" transform="matrix(1.77273,0,0,2.51306,-1571.26,-913.186)">
                <g transform="matrix(0.866025,-0.5,1,0.57735,0,0.84319)">
                    <rect x="-97" y="1114.58" width="100" height="86.603" style="fill:rgb(47,166,217);"/>
                </g>
                <g transform="matrix(0.866025,0.5,-5.92119e-17,1.00074,-3.50819e-13,-3.55681)">
                    <rect x="1190" y="101.325" width="100" height="129.904" style="fill:rgb(180,238,195);"/>
                    <clipPath id="_clip10">
                        <rect x="1190" y="101.325" width="100" height="129.904"/>
                    </clipPath>
                    <g clip-path="url(#_clip10)">
                        <g transform="matrix(73.3333,-7.32747e-15,1.08475e-15,84.6154,1172.31,198.008)">
                            <path d="M1.789,-0C1.807,-0 1.817,-0.004 1.817,-0.016L1.817,-0.143C1.817,-0.158 1.817,-0.176 1.8,-0.176L1.579,-0.176L1.176,-0.729C1.171,-0.739 1.159,-0.75 1.139,-0.75L0.679,-0.75C0.667,-0.75 0.654,-0.744 0.644,-0.729L0.256,-0.186L0.051,-0.186C0.036,-0.186 0.031,-0.18 0.031,-0.169L0.031,-0.016C0.031,-0.002 0.048,-0 0.071,-0L0.751,-0C0.761,-0 0.765,-0.007 0.765,-0.019L0.765,-0.168C0.765,-0.174 0.76,-0.18 0.749,-0.18L0.562,-0.18L0.621,-0.266L0.931,-0.266L0.99,-0.18L0.821,-0.18C0.811,-0.18 0.805,-0.174 0.805,-0.165L0.805,-0.019C0.805,-0.009 0.813,-0 0.828,-0L1.789,-0ZM0.77,-0.476C0.772,-0.479 0.782,-0.479 0.785,-0.476L0.863,-0.358L0.685,-0.358L0.77,-0.476Z" style="fill:rgb(219,16,16);fill-rule:nonzero;"/>
                        </g>
                    </g>
                </g>
                <g transform="matrix(0.96225,-0.555556,6.4763e-17,0.938194,-124.13,324.447)">
                    <rect x="1290" y="1209.84" width="90" height="138.564" style="fill:rgb(158,212,188);"/>
                    <clipPath id="_clip11">
                        <rect x="1290" y="1209.84" width="90" height="138.564"/>
                    </clipPath>
                    <g clip-path="url(#_clip11)">
                        <g transform="matrix(66,0,-1.84407e-15,90.2564,1274.74,1312.97)">
                            <path d="M1.005,-0C1.022,-0 1.027,-0.006 1.027,-0.019L1.027,-0.171C1.027,-0.179 1.023,-0.189 1.005,-0.189L0.774,-0.189L0.774,-0.288L1.346,-0.288C1.409,-0.288 1.787,-0.32 1.787,-0.517C1.787,-0.636 1.588,-0.75 1.309,-0.75L0.037,-0.75C0.03,-0.75 0.02,-0.749 0.02,-0.741L0.02,-0.571C0.02,-0.566 0.024,-0.561 0.034,-0.561L0.262,-0.561L0.262,-0.189L0.045,-0.189C0.036,-0.189 0.024,-0.178 0.024,-0.17L0.024,-0.014C0.024,-0.006 0.029,-0 0.036,-0L1.005,-0ZM0.774,-0.463L0.774,-0.561L1.139,-0.561C1.162,-0.561 1.218,-0.546 1.218,-0.51C1.218,-0.471 1.151,-0.463 1.134,-0.463L0.774,-0.463Z" style="fill:rgb(219,16,16);fill-rule:nonzero;"/>
                        </g>
                    </g>
                </g>
            </g>
        </g>
    </g>
</svg>
