<?xml version="1.0" encoding="UTF-8" standalone="no"?>
<!DOCTYPE svg PUBLIC "-//W3C//DTD SVG 1.1//EN" "http://www.w3.org/Graphics/SVG/1.1/DTD/svg11.dtd">
<svg width="100%" height="100%" viewBox="0 0 128 128" version="1.1" xmlns="http://www.w3.org/2000/svg" xmlns:xlink="http://www.w3.org/1999/xlink" xml:space="preserve" xmlns:serif="http://www.serif.com/" style="fill-rule:evenodd;clip-rule:evenodd;stroke-linecap:round;stroke-linejoin:round;stroke-miterlimit:1.5;">
    <g transform="matrix(1,0,0,1,-1207.9,-473.876)">
        <g transform="matrix(1,0,0,1,789.567,3.20844)">
            <circle cx="482.253" cy="534.584" r="63.916" style="fill:rgb(243,92,92);"/>
            <clipPath id="_clip1">
                <circle cx="482.253" cy="534.584" r="63.916"/>
            </clipPath>
            <g clip-path="url(#_clip1)">
                <g transform="matrix(0.595343,0,0,0.595343,195.147,216.323)">
                    <g transform="matrix(1.6797,-0,-0,1.6797,374.893,427.224)">
                        <path d="M15.859,41.553L43.564,24.179L40.841,56.768L15.859,41.553Z" style="fill:rgb(181,238,194);"/>
                        <path d="M63.916,25.864C84.917,25.864 101.968,42.915 101.968,63.916C101.968,84.917 84.917,101.968 63.916,101.968C42.915,101.968 25.864,84.917 25.864,63.916C25.864,56.686 27.885,49.923 31.393,44.164" style="fill:none;stroke:rgb(181,238,194);stroke-width:13px;"/>
                    </g>
                </g>
            </g>
        </g>
    </g>
</svg>
